%TF.GenerationSoftware,KiCad,Pcbnew,8.0.6*%
%TF.CreationDate,2024-12-19T16:20:12+01:00*%
%TF.ProjectId,schemat,73636865-6d61-4742-9e6b-696361645f70,rev?*%
%TF.SameCoordinates,Original*%
%TF.FileFunction,Soldermask,Top*%
%TF.FilePolarity,Negative*%
%FSLAX46Y46*%
G04 Gerber Fmt 4.6, Leading zero omitted, Abs format (unit mm)*
G04 Created by KiCad (PCBNEW 8.0.6) date 2024-12-19 16:20:12*
%MOMM*%
%LPD*%
G01*
G04 APERTURE LIST*
G04 Aperture macros list*
%AMRoundRect*
0 Rectangle with rounded corners*
0 $1 Rounding radius*
0 $2 $3 $4 $5 $6 $7 $8 $9 X,Y pos of 4 corners*
0 Add a 4 corners polygon primitive as box body*
4,1,4,$2,$3,$4,$5,$6,$7,$8,$9,$2,$3,0*
0 Add four circle primitives for the rounded corners*
1,1,$1+$1,$2,$3*
1,1,$1+$1,$4,$5*
1,1,$1+$1,$6,$7*
1,1,$1+$1,$8,$9*
0 Add four rect primitives between the rounded corners*
20,1,$1+$1,$2,$3,$4,$5,0*
20,1,$1+$1,$4,$5,$6,$7,0*
20,1,$1+$1,$6,$7,$8,$9,0*
20,1,$1+$1,$8,$9,$2,$3,0*%
G04 Aperture macros list end*
%ADD10C,1.600000*%
%ADD11O,1.600000X1.600000*%
%ADD12R,1.700000X1.700000*%
%ADD13R,1.600000X1.600000*%
%ADD14R,1.524000X2.524000*%
%ADD15O,1.524000X2.524000*%
%ADD16C,2.000000*%
%ADD17R,1.800000X1.800000*%
%ADD18C,1.800000*%
%ADD19C,1.905000*%
%ADD20R,1.905000X2.000000*%
%ADD21O,1.905000X2.000000*%
%ADD22O,1.700000X1.700000*%
%ADD23R,1.300000X1.300000*%
%ADD24C,1.300000*%
%ADD25RoundRect,0.250000X-0.845000X0.620000X-0.845000X-0.620000X0.845000X-0.620000X0.845000X0.620000X0*%
%ADD26O,2.190000X1.740000*%
G04 APERTURE END LIST*
D10*
%TO.C,R1*%
X104750000Y-33330000D03*
D11*
X104750000Y-23170000D03*
%TD*%
D12*
%TO.C,TP13*%
X83300000Y-76510000D03*
%TD*%
D10*
%TO.C,C8*%
X64800000Y-70260000D03*
X62300000Y-70260000D03*
%TD*%
D13*
%TO.C,U7*%
X101540000Y-57700000D03*
D11*
X99000000Y-57700000D03*
X96460000Y-57700000D03*
X93920000Y-57700000D03*
X91380000Y-57700000D03*
X88840000Y-57700000D03*
X86300000Y-57700000D03*
X86300000Y-65320000D03*
X88840000Y-65320000D03*
X91380000Y-65320000D03*
X93920000Y-65320000D03*
X96460000Y-65320000D03*
X99000000Y-65320000D03*
X101540000Y-65320000D03*
%TD*%
D14*
%TO.C,U14*%
X116830000Y-101750000D03*
D15*
X114290000Y-101750000D03*
X111750000Y-101750000D03*
X109210000Y-101750000D03*
X106670000Y-101750000D03*
X106670000Y-116990000D03*
X109210000Y-116990000D03*
X111750000Y-116990000D03*
X114290000Y-116990000D03*
X116830000Y-116990000D03*
%TD*%
D12*
%TO.C,TP21*%
X94250000Y-24250000D03*
%TD*%
D13*
%TO.C,U4*%
X60000000Y-38750000D03*
D11*
X57460000Y-38750000D03*
X54920000Y-38750000D03*
X52380000Y-38750000D03*
X49840000Y-38750000D03*
X47300000Y-38750000D03*
X44760000Y-38750000D03*
X44760000Y-46370000D03*
X47300000Y-46370000D03*
X49840000Y-46370000D03*
X52380000Y-46370000D03*
X54920000Y-46370000D03*
X57460000Y-46370000D03*
X60000000Y-46370000D03*
%TD*%
D12*
%TO.C,TP10*%
X59710000Y-51120000D03*
%TD*%
D10*
%TO.C,C3*%
X78500000Y-25750000D03*
X78500000Y-28250000D03*
%TD*%
%TO.C,C5*%
X33250000Y-63000000D03*
X33250000Y-65500000D03*
%TD*%
%TO.C,R27*%
X102750000Y-86170000D03*
D11*
X102750000Y-96330000D03*
%TD*%
D10*
%TO.C,R33*%
X108250000Y-46830000D03*
D11*
X108250000Y-36670000D03*
%TD*%
D10*
%TO.C,R30*%
X116750000Y-86170000D03*
D11*
X116750000Y-96330000D03*
%TD*%
D10*
%TO.C,R24*%
X84000000Y-108000000D03*
D11*
X84000000Y-118160000D03*
%TD*%
D10*
%TO.C,R25*%
X109750000Y-86170000D03*
D11*
X109750000Y-96330000D03*
%TD*%
D16*
%TO.C,SW1*%
X110000000Y-23750000D03*
X116500000Y-23750000D03*
X110000000Y-28250000D03*
X116500000Y-28250000D03*
%TD*%
D10*
%TO.C,R13*%
X33340000Y-98400000D03*
D11*
X43500000Y-98400000D03*
%TD*%
D12*
%TO.C,TP11*%
X55960000Y-51120000D03*
%TD*%
D10*
%TO.C,R8*%
X33420000Y-87800000D03*
D11*
X43580000Y-87800000D03*
%TD*%
D10*
%TO.C,R15*%
X33320000Y-103200000D03*
D11*
X43480000Y-103200000D03*
%TD*%
D12*
%TO.C,TP18*%
X23000000Y-81750000D03*
%TD*%
D10*
%TO.C,R11*%
X33420000Y-92600000D03*
D11*
X43580000Y-92600000D03*
%TD*%
D17*
%TO.C,D3*%
X24500000Y-34460000D03*
D18*
X24500000Y-37000000D03*
%TD*%
D12*
%TO.C,TP14*%
X65500000Y-83250000D03*
%TD*%
%TO.C,TP19*%
X45210000Y-51120000D03*
%TD*%
D13*
%TO.C,U8*%
X60012448Y-27940000D03*
D11*
X57472448Y-27940000D03*
X54932448Y-27940000D03*
X52392448Y-27940000D03*
X49852448Y-27940000D03*
X47312448Y-27940000D03*
X44772448Y-27940000D03*
X44772448Y-35560000D03*
X47312448Y-35560000D03*
X49852448Y-35560000D03*
X52392448Y-35560000D03*
X54932448Y-35560000D03*
X57472448Y-35560000D03*
X60012448Y-35560000D03*
%TD*%
D12*
%TO.C,TP20*%
X48960000Y-51120000D03*
%TD*%
D10*
%TO.C,R32*%
X77000000Y-48580000D03*
D11*
X77000000Y-38420000D03*
%TD*%
D17*
%TO.C,D1*%
X70500000Y-41000000D03*
D18*
X70500000Y-38460000D03*
%TD*%
D19*
%TO.C,Q5*%
X112500000Y-60600000D03*
D20*
X115000000Y-60600000D03*
D21*
X109920000Y-60600000D03*
%TD*%
D10*
%TO.C,C1*%
X101250000Y-23250000D03*
X101250000Y-25750000D03*
%TD*%
%TO.C,R28*%
X99250000Y-86170000D03*
D11*
X99250000Y-96330000D03*
%TD*%
D10*
%TO.C,R19*%
X77000000Y-108000000D03*
D11*
X77000000Y-118160000D03*
%TD*%
D12*
%TO.C,TP9*%
X48000000Y-117500000D03*
%TD*%
D10*
%TO.C,R17*%
X69550000Y-72840000D03*
D11*
X69550000Y-62680000D03*
%TD*%
D12*
%TO.C,TP2*%
X26750000Y-69750000D03*
%TD*%
%TO.C,TP8*%
X65500000Y-107250000D03*
%TD*%
D13*
%TO.C,U2*%
X33130000Y-78000000D03*
D11*
X35670000Y-78000000D03*
X38210000Y-78000000D03*
X40750000Y-78000000D03*
X43290000Y-78000000D03*
X45830000Y-78000000D03*
X48370000Y-78000000D03*
X50910000Y-78000000D03*
X50910000Y-70380000D03*
X48370000Y-70380000D03*
X45830000Y-70380000D03*
X43290000Y-70380000D03*
X40750000Y-70380000D03*
X38210000Y-70380000D03*
X35670000Y-70380000D03*
X33130000Y-70380000D03*
%TD*%
D10*
%TO.C,C6*%
X36750000Y-115750000D03*
X36750000Y-118250000D03*
%TD*%
D13*
%TO.C,U11*%
X87625000Y-94500000D03*
D11*
X85085000Y-94500000D03*
X82545000Y-94500000D03*
X80005000Y-94500000D03*
X77465000Y-94500000D03*
X74925000Y-94500000D03*
X72385000Y-94500000D03*
X69845000Y-94500000D03*
X69845000Y-102120000D03*
X72385000Y-102120000D03*
X74925000Y-102120000D03*
X77465000Y-102120000D03*
X80005000Y-102120000D03*
X82545000Y-102120000D03*
X85085000Y-102120000D03*
X87625000Y-102120000D03*
%TD*%
D12*
%TO.C,TP3*%
X33250000Y-117500000D03*
%TD*%
D10*
%TO.C,R26*%
X106250000Y-86170000D03*
D11*
X106250000Y-96330000D03*
%TD*%
D10*
%TO.C,R10*%
X54500000Y-84420000D03*
D11*
X54500000Y-94580000D03*
%TD*%
D10*
%TO.C,R7*%
X33420000Y-82950000D03*
D11*
X43580000Y-82950000D03*
%TD*%
D12*
%TO.C,TP12*%
X101000000Y-41500000D03*
%TD*%
D10*
%TO.C,C2*%
X38000000Y-23500000D03*
X38000000Y-26000000D03*
%TD*%
%TO.C,R12*%
X59500000Y-97920000D03*
D11*
X59500000Y-108080000D03*
%TD*%
D10*
%TO.C,R31*%
X113250000Y-86170000D03*
D11*
X113250000Y-96330000D03*
%TD*%
D12*
%TO.C,TP1*%
X85750000Y-24250000D03*
%TD*%
D13*
%TO.C,U16*%
X22270000Y-87075000D03*
D11*
X22270000Y-89615000D03*
X22270000Y-92155000D03*
X22270000Y-94695000D03*
X22270000Y-97235000D03*
X22270000Y-99775000D03*
X22270000Y-102315000D03*
X29890000Y-102315000D03*
X29890000Y-99775000D03*
X29890000Y-97235000D03*
X29890000Y-94695000D03*
X29890000Y-92155000D03*
X29890000Y-89615000D03*
X29890000Y-87075000D03*
%TD*%
D13*
%TO.C,U12*%
X114625000Y-72000000D03*
D11*
X112085000Y-72000000D03*
X109545000Y-72000000D03*
X107005000Y-72000000D03*
X104465000Y-72000000D03*
X101925000Y-72000000D03*
X99385000Y-72000000D03*
X96845000Y-72000000D03*
X96845000Y-79620000D03*
X99385000Y-79620000D03*
X101925000Y-79620000D03*
X104465000Y-79620000D03*
X107005000Y-79620000D03*
X109545000Y-79620000D03*
X112085000Y-79620000D03*
X114625000Y-79620000D03*
%TD*%
D12*
%TO.C,TP5*%
X65500000Y-91500000D03*
%TD*%
D10*
%TO.C,C4*%
X30000000Y-63250000D03*
X27500000Y-63250000D03*
%TD*%
D12*
%TO.C,J1*%
X91500000Y-72750000D03*
D22*
X91500000Y-75290000D03*
%TD*%
D10*
%TO.C,R2*%
X34500000Y-33580000D03*
D11*
X34500000Y-23420000D03*
%TD*%
D16*
%TO.C,SW2*%
X23000000Y-23750000D03*
X29500000Y-23750000D03*
X23000000Y-28250000D03*
X29500000Y-28250000D03*
%TD*%
D10*
%TO.C,R23*%
X87500000Y-108000000D03*
D11*
X87500000Y-118160000D03*
%TD*%
D13*
%TO.C,U10*%
X69920000Y-90370000D03*
D11*
X72460000Y-90370000D03*
X75000000Y-90370000D03*
X77540000Y-90370000D03*
X80080000Y-90370000D03*
X82620000Y-90370000D03*
X85160000Y-90370000D03*
X87700000Y-90370000D03*
X87700000Y-82750000D03*
X85160000Y-82750000D03*
X82620000Y-82750000D03*
X80080000Y-82750000D03*
X77540000Y-82750000D03*
X75000000Y-82750000D03*
X72460000Y-82750000D03*
X69920000Y-82750000D03*
%TD*%
D23*
%TO.C,Q3*%
X47480000Y-100500000D03*
D24*
X48750000Y-99230000D03*
X50020000Y-100500000D03*
%TD*%
D25*
%TO.C,J2*%
X115750000Y-52460000D03*
D26*
X115750000Y-55000000D03*
%TD*%
D10*
%TO.C,C9*%
X64750000Y-65000000D03*
X59750000Y-65000000D03*
%TD*%
D23*
%TO.C,Q4*%
X47480000Y-107000000D03*
D24*
X48750000Y-105730000D03*
X50020000Y-107000000D03*
%TD*%
D10*
%TO.C,R14*%
X54500000Y-97670000D03*
D11*
X54500000Y-107830000D03*
%TD*%
D13*
%TO.C,U3*%
X80100000Y-71560000D03*
D11*
X80100000Y-69020000D03*
X80100000Y-66480000D03*
X80100000Y-63940000D03*
X72480000Y-63940000D03*
X72480000Y-66480000D03*
X72480000Y-69020000D03*
X72480000Y-71560000D03*
%TD*%
D10*
%TO.C,R4*%
X23670000Y-46530000D03*
D11*
X33830000Y-46530000D03*
%TD*%
D23*
%TO.C,Q1*%
X47480000Y-87500000D03*
D24*
X48750000Y-86230000D03*
X50020000Y-87500000D03*
%TD*%
D13*
%TO.C,C7*%
X41000000Y-114000000D03*
D10*
X43500000Y-114000000D03*
%TD*%
D12*
%TO.C,TP17*%
X56000000Y-24510000D03*
%TD*%
D13*
%TO.C,U1*%
X22450000Y-51950000D03*
D11*
X22450000Y-54490000D03*
X22450000Y-57030000D03*
X22450000Y-59570000D03*
X30070000Y-59570000D03*
X30070000Y-57030000D03*
X30070000Y-54490000D03*
X30070000Y-51950000D03*
%TD*%
D12*
%TO.C,TP6*%
X65500000Y-96750000D03*
%TD*%
%TO.C,TP4*%
X26750000Y-81750000D03*
%TD*%
D10*
%TO.C,R20*%
X73500000Y-108000000D03*
D11*
X73500000Y-118160000D03*
%TD*%
D10*
%TO.C,R21*%
X70000000Y-108000000D03*
D11*
X70000000Y-118160000D03*
%TD*%
D23*
%TO.C,Q2*%
X47480000Y-94000000D03*
D24*
X48750000Y-92730000D03*
X50020000Y-94000000D03*
%TD*%
D13*
%TO.C,U5*%
X22200000Y-107450000D03*
D11*
X22200000Y-109990000D03*
X22200000Y-112530000D03*
X22200000Y-115070000D03*
X29820000Y-115070000D03*
X29820000Y-112530000D03*
X29820000Y-109990000D03*
X29820000Y-107450000D03*
%TD*%
D12*
%TO.C,TP15*%
X22950000Y-69780000D03*
%TD*%
D10*
%TO.C,R18*%
X80500000Y-108000000D03*
D11*
X80500000Y-118160000D03*
%TD*%
D12*
%TO.C,TP7*%
X65500000Y-102000000D03*
%TD*%
D13*
%TO.C,U6*%
X101375000Y-45950000D03*
D11*
X98835000Y-45950000D03*
X96295000Y-45950000D03*
X93755000Y-45950000D03*
X91215000Y-45950000D03*
X88675000Y-45950000D03*
X86135000Y-45950000D03*
X86135000Y-53570000D03*
X88675000Y-53570000D03*
X91215000Y-53570000D03*
X93755000Y-53570000D03*
X96295000Y-53570000D03*
X98835000Y-53570000D03*
X101375000Y-53570000D03*
%TD*%
D17*
%TO.C,D2*%
X115000000Y-34475000D03*
D18*
X115000000Y-37015000D03*
%TD*%
D10*
%TO.C,R9*%
X33420000Y-108000000D03*
D11*
X43580000Y-108000000D03*
%TD*%
D14*
%TO.C,U13*%
X102250000Y-101750000D03*
D15*
X99710000Y-101750000D03*
X97170000Y-101750000D03*
X94630000Y-101750000D03*
X92090000Y-101750000D03*
X92090000Y-116990000D03*
X94630000Y-116990000D03*
X97170000Y-116990000D03*
X99710000Y-116990000D03*
X102250000Y-116990000D03*
%TD*%
D10*
%TO.C,R6*%
X59500000Y-84420000D03*
D11*
X59500000Y-94580000D03*
%TD*%
D10*
%TO.C,R16*%
X79380000Y-76260000D03*
D11*
X69220000Y-76260000D03*
%TD*%
D16*
%TO.C,SW3*%
X67500000Y-23250000D03*
X74000000Y-23250000D03*
X67500000Y-27750000D03*
X74000000Y-27750000D03*
%TD*%
D10*
%TO.C,R34*%
X39000000Y-46830000D03*
D11*
X39000000Y-36670000D03*
%TD*%
D10*
%TO.C,R29*%
X95750000Y-86170000D03*
D11*
X95750000Y-96330000D03*
%TD*%
D10*
%TO.C,R5*%
X33500000Y-49780000D03*
D11*
X33500000Y-59940000D03*
%TD*%
D10*
%TO.C,R3*%
X65670000Y-32750000D03*
D11*
X75830000Y-32750000D03*
%TD*%
D12*
%TO.C,TP16*%
X59750000Y-24510000D03*
%TD*%
D10*
%TO.C,R22*%
X92250000Y-86170000D03*
D11*
X92250000Y-96330000D03*
%TD*%
M02*
