M48
; DRILL file {KiCad 8.0.6} date 2024-12-19T16:20:12+0100
; FORMAT={-:-/ absolute / inch / decimal}
; #@! TF.CreationDate,2024-12-19T16:20:12+01:00
; #@! TF.GenerationSoftware,Kicad,Pcbnew,8.0.6
; #@! TF.FileFunction,Plated,1,2,PTH
FMAT,2
INCH
; #@! TA.AperFunction,Plated,PTH,ViaDrill
T1C0.0118
; #@! TA.AperFunction,Plated,PTH,ComponentDrill
T2C0.0295
; #@! TA.AperFunction,Plated,PTH,ComponentDrill
T3C0.0315
; #@! TA.AperFunction,Plated,PTH,ComponentDrill
T4C0.0354
; #@! TA.AperFunction,Plated,PTH,ComponentDrill
T5C0.0394
; #@! TA.AperFunction,Plated,PTH,ComponentDrill
T6C0.0433
; #@! TA.AperFunction,Plated,PTH,ComponentDrill
T7C0.0469
%
G90
G05
T1
X2.4606Y-2.0669
X2.4803Y-2.0965
X3.6024Y-3.1693
T2
X1.8693Y-3.4449
X1.8693Y-3.7008
X1.8693Y-3.9567
X1.8693Y-4.2126
X1.9193Y-3.3949
X1.9193Y-3.6508
X1.9193Y-3.9067
X1.9193Y-4.1626
X1.9693Y-3.4449
X1.9693Y-3.7008
X1.9693Y-3.9567
X1.9693Y-4.2126
T3
X0.874Y-4.2303
X0.874Y-4.3303
X0.874Y-4.4303
X0.874Y-4.5303
X0.8768Y-3.4281
X0.8768Y-3.5281
X0.8768Y-3.6281
X0.8768Y-3.7281
X0.8768Y-3.8281
X0.8768Y-3.9281
X0.8768Y-4.0281
X0.8839Y-2.0453
X0.8839Y-2.1453
X0.8839Y-2.2453
X0.8839Y-2.3453
X0.9319Y-1.8319
X1.0827Y-2.4902
X1.174Y-4.2303
X1.174Y-4.3303
X1.174Y-4.4303
X1.174Y-4.5303
X1.1768Y-3.4281
X1.1768Y-3.5281
X1.1768Y-3.6281
X1.1768Y-3.7281
X1.1768Y-3.8281
X1.1768Y-3.9281
X1.1768Y-4.0281
X1.1811Y-2.4902
X1.1839Y-2.0453
X1.1839Y-2.1453
X1.1839Y-2.2453
X1.1839Y-2.3453
X1.3043Y-2.7709
X1.3043Y-3.0709
X1.3091Y-2.4803
X1.3091Y-2.5787
X1.3118Y-4.063
X1.3126Y-3.874
X1.3157Y-3.2657
X1.3157Y-3.4567
X1.3157Y-3.6457
X1.3157Y-4.252
X1.3189Y-1.9598
X1.3189Y-2.3598
X1.3319Y-1.8319
X1.3583Y-0.922
X1.3583Y-1.322
X1.4043Y-2.7709
X1.4043Y-3.0709
X1.4469Y-4.5571
X1.4469Y-4.6555
X1.4961Y-0.9252
X1.4961Y-1.0236
X1.5043Y-2.7709
X1.5043Y-3.0709
X1.5354Y-1.4437
X1.5354Y-1.8437
X1.6043Y-2.7709
X1.6043Y-3.0709
X1.6142Y-4.4882
X1.7043Y-2.7709
X1.7043Y-3.0709
X1.7118Y-4.063
X1.7126Y-3.874
X1.7126Y-4.4882
X1.7157Y-3.2657
X1.7157Y-3.4567
X1.7157Y-3.6457
X1.7157Y-4.252
X1.7622Y-1.5256
X1.7622Y-1.8256
X1.7627Y-1.1
X1.7627Y-1.4
X1.8043Y-2.7709
X1.8043Y-3.0709
X1.8622Y-1.5256
X1.8622Y-1.8256
X1.8627Y-1.1
X1.8627Y-1.4
X1.9043Y-2.7709
X1.9043Y-3.0709
X1.9622Y-1.5256
X1.9622Y-1.8256
X1.9627Y-1.1
X1.9627Y-1.4
X2.0043Y-2.7709
X2.0043Y-3.0709
X2.0622Y-1.5256
X2.0622Y-1.8256
X2.0627Y-1.1
X2.0627Y-1.4
X2.1457Y-3.3236
X2.1457Y-3.7236
X2.1457Y-3.8453
X2.1457Y-4.2453
X2.1622Y-1.5256
X2.1622Y-1.8256
X2.1627Y-1.1
X2.1627Y-1.4
X2.2622Y-1.5256
X2.2622Y-1.8256
X2.2627Y-1.1
X2.2627Y-1.4
X2.3425Y-3.3236
X2.3425Y-3.7236
X2.3425Y-3.8551
X2.3425Y-4.2551
X2.3524Y-2.5591
X2.3622Y-1.5256
X2.3622Y-1.8256
X2.3627Y-1.1
X2.3627Y-1.4
X2.4528Y-2.7661
X2.5492Y-2.5591
X2.5512Y-2.7661
X2.5854Y-1.2894
X2.7252Y-3.0024
X2.7382Y-2.4677
X2.7382Y-2.8677
X2.7498Y-3.7205
X2.7498Y-4.0205
X2.7528Y-3.2579
X2.7528Y-3.5579
X2.7559Y-4.252
X2.7559Y-4.652
X2.8498Y-3.7205
X2.8498Y-4.0205
X2.8528Y-3.2579
X2.8528Y-3.5579
X2.8535Y-2.5173
X2.8535Y-2.6173
X2.8535Y-2.7173
X2.8535Y-2.8173
X2.8937Y-4.252
X2.8937Y-4.652
X2.9498Y-3.7205
X2.9498Y-4.0205
X2.9528Y-3.2579
X2.9528Y-3.5579
X2.9854Y-1.2894
X3.0315Y-1.5126
X3.0315Y-1.9126
X3.0315Y-4.252
X3.0315Y-4.652
X3.0498Y-3.7205
X3.0498Y-4.0205
X3.0528Y-3.2579
X3.0528Y-3.5579
X3.0906Y-1.0138
X3.0906Y-1.1122
X3.1252Y-3.0024
X3.1498Y-3.7205
X3.1498Y-4.0205
X3.1528Y-3.2579
X3.1528Y-3.5579
X3.1535Y-2.5173
X3.1535Y-2.6173
X3.1535Y-2.7173
X3.1535Y-2.8173
X3.1693Y-4.252
X3.1693Y-4.652
X3.2498Y-3.7205
X3.2498Y-4.0205
X3.2528Y-3.2579
X3.2528Y-3.5579
X3.3071Y-4.252
X3.3071Y-4.652
X3.3498Y-3.7205
X3.3498Y-4.0205
X3.3528Y-3.2579
X3.3528Y-3.5579
X3.3911Y-1.8091
X3.3911Y-2.1091
X3.3976Y-2.2717
X3.3976Y-2.5717
X3.4449Y-4.252
X3.4449Y-4.652
X3.4498Y-3.7205
X3.4498Y-4.0205
X3.4528Y-3.2579
X3.4528Y-3.5579
X3.4911Y-1.8091
X3.4911Y-2.1091
X3.4976Y-2.2717
X3.4976Y-2.5717
X3.5911Y-1.8091
X3.5911Y-2.1091
X3.5976Y-2.2717
X3.5976Y-2.5717
X3.6256Y-4.0059
X3.6256Y-4.6059
X3.6319Y-3.3925
X3.6319Y-3.7925
X3.6911Y-1.8091
X3.6911Y-2.1091
X3.6976Y-2.2717
X3.6976Y-2.5717
X3.7256Y-4.0059
X3.7256Y-4.6059
X3.7697Y-3.3925
X3.7697Y-3.7925
X3.7911Y-1.8091
X3.7911Y-2.1091
X3.7976Y-2.2717
X3.7976Y-2.5717
X3.8128Y-2.8346
X3.8128Y-3.1346
X3.8256Y-4.0059
X3.8256Y-4.6059
X3.8911Y-1.8091
X3.8911Y-2.1091
X3.8976Y-2.2717
X3.8976Y-2.5717
X3.9075Y-3.3925
X3.9075Y-3.7925
X3.9128Y-2.8346
X3.9128Y-3.1346
X3.9256Y-4.0059
X3.9256Y-4.6059
X3.9862Y-0.9154
X3.9862Y-1.0138
X3.9911Y-1.8091
X3.9911Y-2.1091
X3.9976Y-2.2717
X3.9976Y-2.5717
X4.0128Y-2.8346
X4.0128Y-3.1346
X4.0256Y-4.0059
X4.0256Y-4.6059
X4.0453Y-3.3925
X4.0453Y-3.7925
X4.1128Y-2.8346
X4.1128Y-3.1346
X4.124Y-0.9122
X4.124Y-1.3122
X4.1831Y-3.3925
X4.1831Y-3.7925
X4.1996Y-4.0059
X4.1996Y-4.6059
X4.2128Y-2.8346
X4.2128Y-3.1346
X4.2618Y-1.4437
X4.2618Y-1.8437
X4.2996Y-4.0059
X4.2996Y-4.6059
X4.3128Y-2.8346
X4.3128Y-3.1346
X4.3209Y-3.3925
X4.3209Y-3.7925
X4.3996Y-4.0059
X4.3996Y-4.6059
X4.4128Y-2.8346
X4.4128Y-3.1346
X4.4587Y-3.3925
X4.4587Y-3.7925
X4.4996Y-4.0059
X4.4996Y-4.6059
X4.5128Y-2.8346
X4.5128Y-3.1346
X4.5965Y-3.3925
X4.5965Y-3.7925
X4.5996Y-4.0059
X4.5996Y-4.6059
T4
X0.9646Y-1.3567
X0.9646Y-1.4567
X2.7756Y-1.5142
X2.7756Y-1.6142
X4.5276Y-1.3573
X4.5276Y-1.4573
T5
X0.9035Y-2.7472
X0.9055Y-3.2185
X1.0531Y-2.7461
X1.0531Y-3.2185
X1.3091Y-4.626
X1.7799Y-2.0126
X1.8898Y-4.626
X1.9276Y-2.0126
X2.2031Y-2.0126
X2.2047Y-0.965
X2.3508Y-2.0126
X2.3524Y-0.965
X2.5787Y-3.2776
X2.5787Y-3.6024
X2.5787Y-3.8091
X2.5787Y-4.0157
X2.5787Y-4.2224
X3.2795Y-3.0122
X3.376Y-0.9547
X3.6024Y-2.8642
X3.6024Y-2.9642
X3.7106Y-0.9547
X3.9764Y-1.6339
T6
X0.9055Y-0.935
X0.9055Y-1.1122
X1.1614Y-0.935
X1.1614Y-1.1122
X2.6575Y-0.9154
X2.6575Y-1.0925
X2.9134Y-0.9154
X2.9134Y-1.0925
X4.3276Y-2.3858
X4.3307Y-0.935
X4.3307Y-1.1122
X4.4291Y-2.3858
X4.5276Y-2.3858
X4.5866Y-0.935
X4.5866Y-1.1122
T7
X4.5571Y-2.0654
X4.5571Y-2.1654
M30
